<svg width="480" height="480" viewBox="0 0 480 480" fill="none" xmlns="http://www.w3.org/2000/svg">
<g clip-path="url(#clip0_2_2)">
<circle cx="240" cy="240" r="240" fill="#59A1CA"/>
<path d="M257.2 250.2C260.6 250.2 262.3 254.8 262.3 264C262.3 269 260.2 275.1 256 282.3C251.8 289.3 246.3 295.8 239.5 301.8C232.9 307.6 225.5 312.4 217.3 316.2C209.1 320 201.3 321.9 193.9 321.9C186.5 321.9 180.7 320.5 176.5 317.7C172.3 314.9 169 311.1 166.6 306.3C163.2 299.5 160.4 286.6 158.2 267.6C156 248.4 153.8 235 151.6 227.4C146.4 226.4 141.8 224.4 137.8 221.4C134 218.2 132.1 214.4 132.1 210C132.1 205.4 134.1 202.1 138.1 200.1C142.3 198.1 147 197.1 152.2 197.1C157.6 197.1 162.4 198.4 166.6 201C172.2 196.4 176.7 191 180.1 184.8C183.7 178.4 185.5 169.9 185.5 159.3C185.5 148.5 181.9 139.9 174.7 133.5C167.5 127.1 156.9 123.9 142.9 123.9C129.1 123.9 118.5 125 111.1 127.2C103.7 129.4 97.3 131.8 91.9 134.4C86.7 137 82 139.4 77.8 141.6C73.8 143.8 70 144.9 66.4 144.9C62.8 144.9 61 143.8 61 141.6C61 139.2 62.9 135.4 66.7 130.2C70.5 125 76.1 119.8 83.5 114.6C102.1 101.6 123.1 95.2 146.5 95.4C169.9 95.4 189.2 99.8 204.4 108.6C222.2 119 231.1 134.6 231.1 155.4C231.3 172.6 226.8 186.9 217.6 198.3C208.4 209.7 197 217.9 183.4 222.9C186.4 229.5 188.8 236.6 190.6 244.2C192.6 251.8 194.5 258.8 196.3 265.2C198.1 271.6 200.1 276.9 202.3 281.1C204.7 285.3 207.5 287.4 210.7 287.4C214.1 287.4 218.1 285.5 222.7 281.7C227.5 277.7 232.2 273.4 236.8 268.8C241.4 264.2 245.5 260 249.1 256.2C252.9 252.2 255.6 250.2 257.2 250.2ZM126.7 142.2C129.3 142.2 130.6 145.6 130.6 152.4C130.6 159.2 130.2 165.6 129.4 171.6C127.6 183.2 125.3 194 122.5 204C115.3 231.2 111.7 247.1 111.7 251.7V295.8C111.7 306.6 107.6 314 99.4 318C95.6 319.8 91.9 321.5 88.3 323.1C84.9 324.7 81 325.5 76.6 325.5C68.2 325.5 64 315.9 64 296.7C64 277.3 68.5 252.9 77.5 223.5C86.5 194.1 95.9 171.7 105.7 156.3C107.7 153.3 110.6 150.2 114.4 147C118.2 143.8 122.3 142.2 126.7 142.2Z" fill="black"/>
<path d="M403.5 311C403.5 357.116 366.116 394.5 320 394.5C273.884 394.5 236.5 357.116 236.5 311C236.5 264.884 273.884 227.5 320 227.5C366.116 227.5 403.5 264.884 403.5 311Z" fill="#59A1CA" stroke="black" stroke-width="15"/>
<rect x="244.556" y="207" width="249.825" height="22" rx="7" transform="rotate(45 244.556 207)" fill="black"/>
</g>
<defs>
<clipPath id="clip0_2_2">
<rect width="480" height="480" fill="white"/>
</clipPath>
</defs>
</svg>
